<svg id="Capa_1" data-name="Capa 1" xmlns="http://www.w3.org/2000/svg" viewBox="0 0 1225.68 630.05"><defs><style>.cls-1{fill:#45445b;}.cls-2{fill:#bababa;}.cls-3{fill:#f8310e;}.cls-4{fill:#e6e45f;}.cls-5{fill:#737c7b;}.cls-6{fill:#7c8a8d;}.cls-7{fill:#8a8c8b;}.cls-8{fill:#f4ccbe;}.cls-9{fill:none;stroke:#000;stroke-miterlimit:10;stroke-width:5px;}.cls-10{fill:#79572b;}</style></defs><g id="imagen_3" data-name="imagen 3"><path id="pantalon" class="cls-1" d="M575.11,552.32s159.84,40,179.28,0S762,616,762,616s-170.64,23.76-193.32,0S575.11,552.32,575.11,552.32Z"/><polygon id="camisa" class="cls-2" points="584.83 258.56 594.55 247.76 606.43 260.04 625.87 234.8 636.67 234.8 702.55 576.08 606.43 576.08 566.47 266.12 584.83 258.56"/><path class="cls-3" d="M398,105.2s25.14-2.16,39.57,22.68c0,0-31.71,124.2,0,119.88S563.23,265,588.07,254.24c0,0-1.08,119.88,14,122s5.4,100.44,5.4,100.44,27,90.72,21.6,91.8-17.1,40-59.4,16.2-15.12-167.4-15.12-167.4S542.71,311,535.15,315,409.87,291,384,285.56,398,105.2,398,105.2Z"/><g id="foco"><path class="cls-4" d="M514.85,70.53a29.81,29.81,0,0,1-21.31,5.61c-.84-.12-12,2.19-12.65,5.52s-8.43-3.39-11.47-7.63c-3.24-4.53-4.58-13.49-2.5-12.1s8.15-11,8.25-11.53a29.82,29.82,0,0,1,12.12-18.28c12.4-8.89,28.62-7.51,36.23,3.1S527.25,61.64,514.85,70.53Z"/><rect class="cls-5" x="452.89" y="76.33" width="19.01" height="8" rx="3.52" transform="translate(258.13 -342.2) rotate(54.34)"/><rect class="cls-6" x="454.63" y="73.31" width="23.96" height="8" rx="3.52" transform="translate(257.43 -346.89) rotate(54.34)"/><rect class="cls-7" x="456.9" y="70.04" width="28.53" height="8" rx="3.52" transform="translate(256.67 -351.96) rotate(54.34)"/></g><path class="cls-8" d="M464.12,60.35s-20.65,16.39-16.84,25.9,18.33-1.1,18.33-1.1,3.68,12.76-8.42,15.65-24.7,27.45-24.7,27.45l-22.66-17S423,42.26,464.12,60.35Z"/><g id="lupa"><ellipse class="cls-9" cx="542.88" cy="112.58" rx="31.22" ry="19.86" transform="translate(16.65 287.14) rotate(-30.07)"/><path d="M519.37,132.85,458.28,181c-1.89,1.5.78,4.14,2.66,2.66L522,135.5c1.89-1.49-.78-4.13-2.66-2.65Z"/></g><path class="cls-8" d="M475.15,189.44v-5.52s-11.76-15.6-10.8-34.56,28.8-14.88,28.8-14.88,10.32,7.2,6.72,16.08,11.28-5.28,11.28-5.28,7.44,1.44,2.4,7.44-13,30.48-13,30.48l-2.16.24-.48,6Z"/><path class="cls-3" d="M464.3,193.76s20.09-14,43.85-4.32c0,0-6.48,145.8,30.24,118.8s98.28-48.6,98.28-48.6V237s84.24-3.24,99.36,108-17.28,76.68,32.4,196.56-90.72,25.92-90.72,25.92-4.32-42.12-1.08-54-40-175-40-175-114.48,48.6-160.92,19.44S464.3,193.76,464.3,193.76Z"/><path id="corbata" class="cls-4" d="M600,265v-10.8h12.89S634.51,292,687.43,278s70.2-4.32,70.2-4.32S801.91,338.48,911,305l21.6,9.61s-4.32,14.15-7.56,15.23-74.52,11.88-116.64,0-45.16-45.28-122-30.24C636.67,309.32,600,265,600,265Z"/><path class="cls-8" d="M600,146.24l-40,24.84,6.47,8.64-16.2,18.36s9.72,19.44,24.84,17.28S593.47,264,593.47,264l46.44-17.28Z"/><path class="cls-10" d="M599,156.08l-14.4-16.32s-1.44-13.92,8.88-17S608.59,134,608.59,134s4.56,3.12,12.72-.72,13.2,12.48,13.2,12.48,9.6,11.52,18.72,10.32S647,187,647,187l-1.44,17.52s-40.26,35.17-36.24,11c.24-1.44,11-16.08,11-16.08s1-7.68-9.09-10.08c0,0-5.52,6.72-16.08,1.68s11-9.6,11-9.6,10.56-4.8-14.16-16.8Z"/></g></svg>